<svg width="1024" height="1024" viewBox="0 0 1024 1024" xmlns="http://www.w3.org/2000/svg">
  <defs>
    <linearGradient id="sky" x1="0" y1="0" x2="0" y2="1">
      <stop offset="0%" stop-color="#8fd3ff"/>
      <stop offset="100%" stop-color="#e9f5ff"/>
    </linearGradient>
    <linearGradient id="ground" x1="0" y1="0" x2="0" y2="1">
      <stop offset="0%" stop-color="#8fd38f"/>
      <stop offset="100%" stop-color="#6bbf6b"/>
    </linearGradient>
  </defs>
  <rect width="1024" height="1024" fill="url(#sky)"/>
  <rect y="620" width="1024" height="404" fill="url(#ground)"/>
  <g fill="#ffd1dc" opacity="0.9">
    <circle cx="120" cy="140" r="70"/>
    <circle cx="200" cy="120" r="55"/>
    <circle cx="140" cy="210" r="60"/>
  </g>
  <g fill="#ffd1dc" opacity="0.9">
    <circle cx="860" cy="170" r="80"/>
    <circle cx="930" cy="140" r="55"/>
    <circle cx="900" cy="230" r="60"/>
  </g>
  <rect x="140" y="360" width="740" height="280" rx="24" fill="#f4f6ff" stroke="#9aa7ff" stroke-width="10"/>
  <rect x="180" y="400" width="220" height="140" fill="#c9d8ff" stroke="#8fa1ff" stroke-width="8"/>
  <rect x="420" y="400" width="220" height="140" fill="#c9d8ff" stroke="#8fa1ff" stroke-width="8"/>
  <rect x="660" y="400" width="160" height="140" fill="#c9d8ff" stroke="#8fa1ff" stroke-width="8"/>
  <rect x="450" y="520" width="140" height="120" fill="#ffe7c7" stroke="#f2b26f" stroke-width="8"/>
  <path d="M200 360 L510 210 L820 360" fill="#ffccd5" stroke="#eaa1b4" stroke-width="12"/>
  <circle cx="520" cy="180" r="36" fill="#fff7a8" stroke="#f2d263" stroke-width="8"/>
  <g fill="#ffffff" opacity="0.85">
    <circle cx="720" cy="120" r="35"/>
    <circle cx="760" cy="130" r="28"/>
    <circle cx="690" cy="130" r="22"/>
  </g>
</svg>
