<svg width="1024" height="1024" viewBox="0 0 1024 1024" xmlns="http://www.w3.org/2000/svg">
  <defs>
    <linearGradient id="pastel" x1="0" y1="0" x2="1" y2="1">
      <stop offset="0%" stop-color="#ffe5f1"/>
      <stop offset="100%" stop-color="#d6f5ff"/>
    </linearGradient>
  </defs>
  <rect width="1024" height="1024" fill="url(#pastel)"/>
  <circle cx="512" cy="560" r="260" fill="#fff8f1" stroke="#ffb4c7" stroke-width="14"/>
  <ellipse cx="350" cy="360" rx="120" ry="160" fill="#fff8f1" stroke="#ffb4c7" stroke-width="14"/>
  <ellipse cx="674" cy="360" rx="120" ry="160" fill="#fff8f1" stroke="#ffb4c7" stroke-width="14"/>
  <polygon points="260,280 320,140 380,300" fill="#ffd1dc"/>
  <polygon points="644,300 704,140 764,280" fill="#ffd1dc"/>
  <circle cx="420" cy="540" r="60" fill="#5d7bff"/>
  <circle cx="604" cy="540" r="60" fill="#5d7bff"/>
  <circle cx="440" cy="520" r="20" fill="#ffffff"/>
  <circle cx="624" cy="520" r="20" fill="#ffffff"/>
  <ellipse cx="512" cy="610" rx="40" ry="30" fill="#ff9bb2"/>
  <path d="M470 650 Q512 690 554 650" stroke="#ff9bb2" stroke-width="14" fill="none" stroke-linecap="round"/>
  <g stroke="#ffb4c7" stroke-width="10" stroke-linecap="round">
    <line x1="320" y1="600" x2="220" y2="580"/>
    <line x1="320" y1="640" x2="210" y2="650"/>
    <line x1="704" y1="600" x2="804" y2="580"/>
    <line x1="704" y1="640" x2="814" y2="650"/>
  </g>
  <circle cx="230" cy="200" r="28" fill="#fff7a8"/>
  <circle cx="820" cy="220" r="32" fill="#fff7a8"/>
</svg>
