<svg width="1024" height="1024" viewBox="0 0 1024 1024" xmlns="http://www.w3.org/2000/svg">
  <defs>
    <linearGradient id="night" x1="0" y1="0" x2="0" y2="1">
      <stop offset="0%" stop-color="#0b0f2f"/>
      <stop offset="100%" stop-color="#1a1b45"/>
    </linearGradient>
    <linearGradient id="glow" x1="0" y1="0" x2="1" y2="1">
      <stop offset="0%" stop-color="#59f3ff"/>
      <stop offset="100%" stop-color="#ff4fd8"/>
    </linearGradient>
  </defs>
  <rect width="1024" height="1024" fill="url(#night)"/>
  <rect y="700" width="1024" height="324" fill="#0e102a"/>
  <g stroke="#272a5e" stroke-width="8">
    <rect x="80" y="280" width="160" height="420" fill="#171a3d"/>
    <rect x="280" y="200" width="200" height="500" fill="#141736"/>
    <rect x="520" y="240" width="220" height="460" fill="#171a3f"/>
    <rect x="780" y="300" width="160" height="400" fill="#13152f"/>
  </g>
  <g fill="url(#glow)">
    <rect x="110" y="330" width="100" height="30"/>
    <rect x="320" y="260" width="120" height="40"/>
    <rect x="560" y="300" width="140" height="36"/>
    <rect x="820" y="340" width="90" height="28"/>
  </g>
  <g fill="#59f3ff" opacity="0.8">
    <circle cx="220" cy="780" r="22"/>
    <circle cx="310" cy="820" r="14"/>
    <circle cx="440" cy="760" r="18"/>
  </g>
  <path d="M120 860 C220 800 420 920 520 860" stroke="#ff4fd8" stroke-width="10" fill="none"/>
  <path d="M520 880 C640 820 820 900 900 840" stroke="#59f3ff" stroke-width="10" fill="none"/>
  <rect x="220" y="520" width="580" height="120" fill="#0c0f28" stroke="#59f3ff" stroke-width="4"/>
  <text x="260" y="595" font-size="54" font-family="'Segoe UI', sans-serif" fill="#ff4fd8">NEON CITY</text>
</svg>
